<?xml version="1.0" encoding="utf-8" standalone="no"?>
<!DOCTYPE svg PUBLIC "-//W3C//DTD SVG 1.1//EN"
  "http://www.w3.org/Graphics/SVG/1.1/DTD/svg11.dtd">
<svg xmlns:xlink="http://www.w3.org/1999/xlink" width="864pt" height="504pt" viewBox="0 0 864 504" xmlns="http://www.w3.org/2000/svg" version="1.1">
 <metadata>
  <rdf:RDF xmlns:dc="http://purl.org/dc/elements/1.1/" xmlns:cc="http://creativecommons.org/ns#" xmlns:rdf="http://www.w3.org/1999/02/22-rdf-syntax-ns#">
   <cc:Work>
    <dc:type rdf:resource="http://purl.org/dc/dcmitype/StillImage"/>
    <dc:date>2025-04-14T19:21:40.338375</dc:date>
    <dc:format>image/svg+xml</dc:format>
    <dc:creator>
     <cc:Agent>
      <dc:title>Matplotlib v3.10.1, https://matplotlib.org/</dc:title>
     </cc:Agent>
    </dc:creator>
   </cc:Work>
  </rdf:RDF>
 </metadata>
 <defs>
  <style type="text/css">*{stroke-linejoin: round; stroke-linecap: butt}</style>
 </defs>
 <g id="figure_1">
  <g id="patch_1">
   <path d="M 0 504 
L 864 504 
L 864 0 
L 0 0 
z
" style="fill: #ffffff"/>
  </g>
  <g id="axes_1">
   <g id="patch_2">
    <path d="M 53.676467 390.358747 
L 853.2 390.358747 
L 853.2 24.72 
L 53.676467 24.72 
z
" style="fill: #ffffff"/>
   </g>
   <g id="matplotlib.axis_1">
    <g id="xtick_1">
     <g id="line2d_1">
      <defs>
       <path id="m5d66eae91f" d="M 0 0 
L 0 3.5 
" style="stroke: #000000; stroke-width: 0.8"/>
      </defs>
      <g>
       <use xlink:href="#m5d66eae91f" x="90.018446" y="390.358747" style="stroke: #000000; stroke-width: 0.8"/>
      </g>
     </g>
     <g id="text_1">
      <!-- shisa-v2-qwen25-7b -->
      <g transform="translate(22.163817 469.221788) rotate(-45) scale(0.1 -0.1)">
       <defs>
        <path id="NotoSansCJKjp-Regular-73" d="M 1498 -83 
C 2317 -83 2758 384 2758 947 
C 2758 1606 2208 1811 1702 2003 
C 1312 2150 954 2278 954 2605 
C 954 2880 1158 3110 1600 3110 
C 1907 3110 2150 2976 2387 2803 
L 2669 3168 
C 2406 3386 2022 3565 1594 3565 
C 832 3565 397 3130 397 2579 
C 397 1984 922 1754 1408 1574 
C 1792 1434 2202 1267 2202 915 
C 2202 614 1978 371 1517 371 
C 1101 371 794 538 486 787 
L 205 397 
C 531 122 1005 -83 1498 -83 
z
" transform="scale(0.015625)"/>
        <path id="NotoSansCJKjp-Regular-68" d="M 589 0 
L 1178 0 
L 1178 2522 
C 1523 2874 1766 3053 2125 3053 
C 2586 3053 2784 2778 2784 2125 
L 2784 0 
L 3366 0 
L 3366 2202 
C 3366 3085 3034 3565 2304 3565 
C 1830 3565 1472 3302 1152 2982 
L 1178 3699 
L 1178 5094 
L 589 5094 
L 589 0 
z
" transform="scale(0.015625)"/>
        <path id="NotoSansCJKjp-Regular-69" d="M 589 0 
L 1178 0 
L 1178 3475 
L 589 3475 
L 589 0 
z
M 883 4192 
C 1114 4192 1274 4346 1274 4582 
C 1274 4806 1114 4960 883 4960 
C 653 4960 499 4806 499 4582 
C 499 4346 653 4192 883 4192 
z
" transform="scale(0.015625)"/>
        <path id="NotoSansCJKjp-Regular-61" d="M 1389 -83 
C 1818 -83 2208 141 2541 416 
L 2560 416 
L 2611 0 
L 3091 0 
L 3091 2138 
C 3091 3002 2739 3565 1888 3565 
C 1325 3565 838 3315 525 3110 
L 749 2707 
C 1024 2893 1389 3078 1792 3078 
C 2362 3078 2509 2650 2509 2202 
C 1030 2035 378 1658 378 902 
C 378 275 806 -83 1389 -83 
z
M 1555 390 
C 1210 390 941 544 941 941 
C 941 1389 1338 1677 2509 1811 
L 2509 845 
C 2170 544 1888 390 1555 390 
z
" transform="scale(0.015625)"/>
        <path id="NotoSansCJKjp-Regular-2d" d="M 294 1568 
L 1933 1568 
L 1933 2016 
L 294 2016 
L 294 1568 
z
" transform="scale(0.015625)"/>
        <path id="NotoSansCJKjp-Regular-76" d="M 1338 0 
L 2022 0 
L 3251 3475 
L 2675 3475 
L 2016 1498 
C 1914 1158 1798 806 1696 474 
L 1664 474 
C 1562 806 1453 1158 1344 1498 
L 691 3475 
L 83 3475 
L 1338 0 
z
" transform="scale(0.015625)"/>
        <path id="NotoSansCJKjp-Regular-32" d="M 282 0 
L 3232 0 
L 3232 506 
L 1933 506 
C 1696 506 1408 480 1165 461 
C 2266 1504 3008 2458 3008 3398 
C 3008 4230 2477 4774 1638 4774 
C 1043 4774 634 4506 256 4090 
L 595 3757 
C 858 4070 1184 4301 1568 4301 
C 2150 4301 2432 3910 2432 3373 
C 2432 2566 1754 1632 282 346 
L 282 0 
z
" transform="scale(0.015625)"/>
        <path id="NotoSansCJKjp-Regular-71" d="M 2790 -1466 
L 3379 -1466 
L 3379 3475 
L 2912 3475 
L 2854 3149 
L 2842 3149 
C 2534 3418 2253 3565 1843 3565 
C 1050 3565 339 2861 339 1734 
C 339 576 902 -83 1773 -83 
C 2176 -83 2541 128 2822 403 
L 2790 -230 
L 2790 -1466 
z
M 1901 410 
C 1293 410 941 902 941 1741 
C 941 2534 1389 3072 1946 3072 
C 2234 3072 2502 2970 2790 2707 
L 2790 883 
C 2502 563 2221 410 1901 410 
z
" transform="scale(0.015625)"/>
        <path id="NotoSansCJKjp-Regular-77" d="M 1139 0 
L 1818 0 
L 2310 1862 
C 2400 2195 2470 2522 2547 2874 
L 2579 2874 
C 2662 2522 2726 2202 2816 1875 
L 3315 0 
L 4026 0 
L 4966 3475 
L 4403 3475 
L 3898 1466 
C 3821 1133 3757 819 3686 499 
L 3654 499 
C 3571 819 3494 1133 3411 1466 
L 2867 3475 
L 2298 3475 
L 1754 1466 
C 1670 1133 1594 819 1523 499 
L 1491 499 
C 1421 819 1357 1133 1286 1466 
L 768 3475 
L 173 3475 
L 1139 0 
z
" transform="scale(0.015625)"/>
        <path id="NotoSansCJKjp-Regular-65" d="M 1997 -83 
C 2464 -83 2835 70 3136 269 
L 2931 659 
C 2669 486 2400 384 2061 384 
C 1402 384 947 858 909 1600 
L 3251 1600 
C 3264 1690 3277 1805 3277 1933 
C 3277 2925 2778 3565 1888 3565 
C 1094 3565 333 2867 333 1734 
C 333 589 1069 -83 1997 -83 
z
M 902 2016 
C 973 2707 1408 3098 1901 3098 
C 2445 3098 2765 2720 2765 2016 
L 902 2016 
z
" transform="scale(0.015625)"/>
        <path id="NotoSansCJKjp-Regular-6e" d="M 589 0 
L 1178 0 
L 1178 2522 
C 1523 2874 1766 3053 2125 3053 
C 2586 3053 2784 2778 2784 2125 
L 2784 0 
L 3366 0 
L 3366 2202 
C 3366 3085 3034 3565 2304 3565 
C 1830 3565 1466 3302 1139 2970 
L 1126 2970 
L 1069 3475 
L 589 3475 
L 589 0 
z
" transform="scale(0.015625)"/>
        <path id="NotoSansCJKjp-Regular-35" d="M 1677 -83 
C 2464 -83 3213 499 3213 1523 
C 3213 2560 2573 3021 1798 3021 
C 1517 3021 1306 2950 1094 2835 
L 1216 4192 
L 2982 4192 
L 2982 4691 
L 704 4691 
L 550 2502 
L 864 2304 
C 1133 2483 1331 2579 1645 2579 
C 2234 2579 2618 2182 2618 1510 
C 2618 826 2176 403 1619 403 
C 1075 403 730 653 467 922 
L 173 538 
C 493 224 941 -83 1677 -83 
z
" transform="scale(0.015625)"/>
        <path id="NotoSansCJKjp-Regular-37" d="M 1267 0 
L 1875 0 
C 1952 1837 2150 2931 3251 4339 
L 3251 4691 
L 314 4691 
L 314 4192 
L 2592 4192 
C 1670 2912 1350 1779 1267 0 
z
" transform="scale(0.015625)"/>
        <path id="NotoSansCJKjp-Regular-62" d="M 2118 -83 
C 2912 -83 3629 602 3629 1792 
C 3629 2867 3142 3565 2246 3565 
C 1856 3565 1472 3347 1152 3078 
L 1178 3699 
L 1178 5094 
L 589 5094 
L 589 0 
L 1056 0 
L 1107 358 
L 1133 358 
C 1434 83 1798 -83 2118 -83 
z
M 2022 410 
C 1792 410 1478 499 1178 768 
L 1178 2598 
C 1504 2906 1811 3072 2099 3072 
C 2765 3072 3021 2560 3021 1786 
C 3021 928 2598 410 2022 410 
z
" transform="scale(0.015625)"/>
       </defs>
       <use xlink:href="#NotoSansCJKjp-Regular-73"/>
       <use xlink:href="#NotoSansCJKjp-Regular-68" transform="translate(46.799988 0)"/>
       <use xlink:href="#NotoSansCJKjp-Regular-69" transform="translate(107.499985 0)"/>
       <use xlink:href="#NotoSansCJKjp-Regular-73" transform="translate(134.999969 0)"/>
       <use xlink:href="#NotoSansCJKjp-Regular-61" transform="translate(181.799957 0)"/>
       <use xlink:href="#NotoSansCJKjp-Regular-2d" transform="translate(238.099945 0)"/>
       <use xlink:href="#NotoSansCJKjp-Regular-76" transform="translate(272.799942 0)"/>
       <use xlink:href="#NotoSansCJKjp-Regular-32" transform="translate(324.899933 0)"/>
       <use xlink:href="#NotoSansCJKjp-Regular-2d" transform="translate(380.399918 0)"/>
       <use xlink:href="#NotoSansCJKjp-Regular-71" transform="translate(415.099915 0)"/>
       <use xlink:href="#NotoSansCJKjp-Regular-77" transform="translate(477.099899 0)"/>
       <use xlink:href="#NotoSansCJKjp-Regular-65" transform="translate(557.299881 0)"/>
       <use xlink:href="#NotoSansCJKjp-Regular-6e" transform="translate(612.699875 0)"/>
       <use xlink:href="#NotoSansCJKjp-Regular-32" transform="translate(673.69986 0)"/>
       <use xlink:href="#NotoSansCJKjp-Regular-35" transform="translate(729.199844 0)"/>
       <use xlink:href="#NotoSansCJKjp-Regular-2d" transform="translate(784.699829 0)"/>
       <use xlink:href="#NotoSansCJKjp-Regular-37" transform="translate(819.399826 0)"/>
       <use xlink:href="#NotoSansCJKjp-Regular-62" transform="translate(874.899811 0)"/>
      </g>
     </g>
    </g>
    <g id="xtick_2">
     <g id="line2d_2">
      <g>
       <use xlink:href="#m5d66eae91f" x="235.386361" y="390.358747" style="stroke: #000000; stroke-width: 0.8"/>
      </g>
     </g>
     <g id="text_2">
      <!-- shisa-v2-llama3.1-8b -->
      <g transform="translate(165.326442 471.427077) rotate(-45) scale(0.1 -0.1)">
       <defs>
        <path id="NotoSansCJKjp-Regular-6c" d="M 1203 -83 
C 1363 -83 1459 -58 1542 -32 
L 1459 416 
C 1395 403 1370 403 1338 403 
C 1248 403 1178 474 1178 653 
L 1178 5094 
L 589 5094 
L 589 691 
C 589 198 768 -83 1203 -83 
z
" transform="scale(0.015625)"/>
        <path id="NotoSansCJKjp-Regular-6d" d="M 589 0 
L 1178 0 
L 1178 2522 
C 1491 2880 1786 3053 2048 3053 
C 2490 3053 2694 2778 2694 2125 
L 2694 0 
L 3277 0 
L 3277 2522 
C 3603 2880 3885 3053 4154 3053 
C 4595 3053 4800 2778 4800 2125 
L 4800 0 
L 5382 0 
L 5382 2202 
C 5382 3085 5043 3565 4333 3565 
C 3904 3565 3546 3290 3181 2899 
C 3040 3309 2758 3565 2221 3565 
C 1805 3565 1446 3302 1139 2970 
L 1126 2970 
L 1069 3475 
L 589 3475 
L 589 0 
z
" transform="scale(0.015625)"/>
        <path id="NotoSansCJKjp-Regular-33" d="M 1683 -83 
C 2522 -83 3194 416 3194 1254 
C 3194 1901 2752 2310 2202 2445 
L 2202 2477 
C 2701 2650 3034 3034 3034 3603 
C 3034 4346 2458 4774 1664 4774 
C 1126 4774 710 4538 358 4218 
L 672 3846 
C 941 4115 1267 4301 1645 4301 
C 2138 4301 2438 4006 2438 3558 
C 2438 3053 2112 2662 1139 2662 
L 1139 2214 
C 2227 2214 2598 1843 2598 1274 
C 2598 736 2208 403 1645 403 
C 1114 403 762 659 486 941 
L 186 563 
C 493 224 954 -83 1683 -83 
z
" transform="scale(0.015625)"/>
        <path id="NotoSansCJKjp-Regular-2e" d="M 890 -83 
C 1120 -83 1312 96 1312 358 
C 1312 627 1120 806 890 806 
C 653 806 467 627 467 358 
C 467 96 653 -83 890 -83 
z
" transform="scale(0.015625)"/>
        <path id="NotoSansCJKjp-Regular-31" d="M 563 0 
L 3136 0 
L 3136 486 
L 2195 486 
L 2195 4691 
L 1747 4691 
C 1491 4544 1190 4435 774 4358 
L 774 3987 
L 1613 3987 
L 1613 486 
L 563 486 
L 563 0 
z
" transform="scale(0.015625)"/>
        <path id="NotoSansCJKjp-Regular-38" d="M 1792 -83 
C 2669 -83 3258 448 3258 1126 
C 3258 1773 2880 2125 2470 2362 
L 2470 2394 
C 2746 2611 3091 3034 3091 3526 
C 3091 4250 2605 4762 1805 4762 
C 1075 4762 518 4282 518 3571 
C 518 3078 813 2726 1152 2490 
L 1152 2464 
C 723 2234 294 1792 294 1165 
C 294 442 922 -83 1792 -83 
z
M 2112 2547 
C 1555 2765 1050 3014 1050 3571 
C 1050 4026 1363 4326 1798 4326 
C 2298 4326 2592 3962 2592 3494 
C 2592 3149 2426 2829 2112 2547 
z
M 1798 352 
C 1235 352 813 717 813 1216 
C 813 1664 1082 2035 1459 2278 
C 2125 2010 2701 1779 2701 1146 
C 2701 678 2342 352 1798 352 
z
" transform="scale(0.015625)"/>
       </defs>
       <use xlink:href="#NotoSansCJKjp-Regular-73"/>
       <use xlink:href="#NotoSansCJKjp-Regular-68" transform="translate(46.799988 0)"/>
       <use xlink:href="#NotoSansCJKjp-Regular-69" transform="translate(107.499985 0)"/>
       <use xlink:href="#NotoSansCJKjp-Regular-73" transform="translate(134.999969 0)"/>
       <use xlink:href="#NotoSansCJKjp-Regular-61" transform="translate(181.799957 0)"/>
       <use xlink:href="#NotoSansCJKjp-Regular-2d" transform="translate(238.099945 0)"/>
       <use xlink:href="#NotoSansCJKjp-Regular-76" transform="translate(272.799942 0)"/>
       <use xlink:href="#NotoSansCJKjp-Regular-32" transform="translate(324.899933 0)"/>
       <use xlink:href="#NotoSansCJKjp-Regular-2d" transform="translate(380.399918 0)"/>
       <use xlink:href="#NotoSansCJKjp-Regular-6c" transform="translate(415.099915 0)"/>
       <use xlink:href="#NotoSansCJKjp-Regular-6c" transform="translate(443.499908 0)"/>
       <use xlink:href="#NotoSansCJKjp-Regular-61" transform="translate(471.899902 0)"/>
       <use xlink:href="#NotoSansCJKjp-Regular-6d" transform="translate(528.19989 0)"/>
       <use xlink:href="#NotoSansCJKjp-Regular-61" transform="translate(620.799881 0)"/>
       <use xlink:href="#NotoSansCJKjp-Regular-33" transform="translate(677.099869 0)"/>
       <use xlink:href="#NotoSansCJKjp-Regular-2e" transform="translate(732.599854 0)"/>
       <use xlink:href="#NotoSansCJKjp-Regular-31" transform="translate(760.399841 0)"/>
       <use xlink:href="#NotoSansCJKjp-Regular-2d" transform="translate(815.899826 0)"/>
       <use xlink:href="#NotoSansCJKjp-Regular-38" transform="translate(850.599823 0)"/>
       <use xlink:href="#NotoSansCJKjp-Regular-62" transform="translate(906.099808 0)"/>
      </g>
     </g>
    </g>
    <g id="xtick_3">
     <g id="line2d_3">
      <g>
       <use xlink:href="#m5d66eae91f" x="380.754276" y="390.358747" style="stroke: #000000; stroke-width: 0.8"/>
      </g>
     </g>
     <g id="text_3">
      <!-- shisa-v2-mistral-nemo-12b -->
      <g transform="translate(290.393764 491.727671) rotate(-45) scale(0.1 -0.1)">
       <defs>
        <path id="NotoSansCJKjp-Regular-74" d="M 1677 -83 
C 1894 -83 2125 -19 2323 45 
L 2208 486 
C 2093 435 1939 390 1811 390 
C 1408 390 1274 634 1274 1056 
L 1274 3002 
L 2221 3002 
L 2221 3475 
L 1274 3475 
L 1274 4454 
L 787 4454 
L 723 3475 
L 173 3443 
L 173 3002 
L 691 3002 
L 691 1075 
C 691 378 941 -83 1677 -83 
z
" transform="scale(0.015625)"/>
        <path id="NotoSansCJKjp-Regular-72" d="M 589 0 
L 1178 0 
L 1178 2234 
C 1408 2822 1760 3040 2048 3040 
C 2195 3040 2272 3021 2387 2982 
L 2496 3488 
C 2387 3546 2278 3565 2125 3565 
C 1741 3565 1382 3283 1139 2842 
L 1126 2842 
L 1069 3475 
L 589 3475 
L 589 0 
z
" transform="scale(0.015625)"/>
        <path id="NotoSansCJKjp-Regular-6f" d="M 1939 -83 
C 2790 -83 3546 582 3546 1734 
C 3546 2893 2790 3565 1939 3565 
C 1088 3565 333 2893 333 1734 
C 333 582 1088 -83 1939 -83 
z
M 1939 403 
C 1338 403 934 934 934 1734 
C 934 2534 1338 3072 1939 3072 
C 2541 3072 2950 2534 2950 1734 
C 2950 934 2541 403 1939 403 
z
" transform="scale(0.015625)"/>
       </defs>
       <use xlink:href="#NotoSansCJKjp-Regular-73"/>
       <use xlink:href="#NotoSansCJKjp-Regular-68" transform="translate(46.799988 0)"/>
       <use xlink:href="#NotoSansCJKjp-Regular-69" transform="translate(107.499985 0)"/>
       <use xlink:href="#NotoSansCJKjp-Regular-73" transform="translate(134.999969 0)"/>
       <use xlink:href="#NotoSansCJKjp-Regular-61" transform="translate(181.799957 0)"/>
       <use xlink:href="#NotoSansCJKjp-Regular-2d" transform="translate(238.099945 0)"/>
       <use xlink:href="#NotoSansCJKjp-Regular-76" transform="translate(272.799942 0)"/>
       <use xlink:href="#NotoSansCJKjp-Regular-32" transform="translate(324.899933 0)"/>
       <use xlink:href="#NotoSansCJKjp-Regular-2d" transform="translate(380.399918 0)"/>
       <use xlink:href="#NotoSansCJKjp-Regular-6d" transform="translate(415.099915 0)"/>
       <use xlink:href="#NotoSansCJKjp-Regular-69" transform="translate(507.699905 0)"/>
       <use xlink:href="#NotoSansCJKjp-Regular-73" transform="translate(535.19989 0)"/>
       <use xlink:href="#NotoSansCJKjp-Regular-74" transform="translate(581.999878 0)"/>
       <use xlink:href="#NotoSansCJKjp-Regular-72" transform="translate(619.699875 0)"/>
       <use xlink:href="#NotoSansCJKjp-Regular-61" transform="translate(658.499863 0)"/>
       <use xlink:href="#NotoSansCJKjp-Regular-6c" transform="translate(714.79985 0)"/>
       <use xlink:href="#NotoSansCJKjp-Regular-2d" transform="translate(743.199844 0)"/>
       <use xlink:href="#NotoSansCJKjp-Regular-6e" transform="translate(777.899841 0)"/>
       <use xlink:href="#NotoSansCJKjp-Regular-65" transform="translate(838.899826 0)"/>
       <use xlink:href="#NotoSansCJKjp-Regular-6d" transform="translate(894.29982 0)"/>
       <use xlink:href="#NotoSansCJKjp-Regular-6f" transform="translate(986.899811 0)"/>
       <use xlink:href="#NotoSansCJKjp-Regular-2d" transform="translate(1047.499802 0)"/>
       <use xlink:href="#NotoSansCJKjp-Regular-31" transform="translate(1082.199799 0)"/>
       <use xlink:href="#NotoSansCJKjp-Regular-32" transform="translate(1137.699783 0)"/>
       <use xlink:href="#NotoSansCJKjp-Regular-62" transform="translate(1193.199768 0)"/>
      </g>
     </g>
    </g>
    <g id="xtick_4">
     <g id="line2d_4">
      <g>
       <use xlink:href="#m5d66eae91f" x="526.122191" y="390.358747" style="stroke: #000000; stroke-width: 0.8"/>
      </g>
     </g>
     <g id="text_4">
      <!-- shisa-v2-unphi4-14b -->
      <g transform="translate(457.327331 470.162019) rotate(-45) scale(0.1 -0.1)">
       <defs>
        <path id="NotoSansCJKjp-Regular-75" d="M 1606 -83 
C 2080 -83 2426 166 2752 544 
L 2771 544 
L 2816 0 
L 3302 0 
L 3302 3475 
L 2720 3475 
L 2720 1011 
C 2387 602 2138 422 1779 422 
C 1318 422 1126 698 1126 1344 
L 1126 3475 
L 538 3475 
L 538 1274 
C 538 384 870 -83 1606 -83 
z
" transform="scale(0.015625)"/>
        <path id="NotoSansCJKjp-Regular-70" d="M 589 -1466 
L 1178 -1466 
L 1178 -288 
L 1158 320 
C 1472 58 1805 -83 2118 -83 
C 2912 -83 3629 602 3629 1792 
C 3629 2867 3142 3565 2246 3565 
C 1843 3565 1453 3334 1139 3072 
L 1126 3072 
L 1069 3475 
L 589 3475 
L 589 -1466 
z
M 2022 410 
C 1792 410 1485 499 1178 768 
L 1178 2598 
C 1510 2906 1811 3072 2099 3072 
C 2765 3072 3021 2560 3021 1786 
C 3021 928 2598 410 2022 410 
z
" transform="scale(0.015625)"/>
        <path id="NotoSansCJKjp-Regular-34" d="M 2176 0 
L 2726 0 
L 2726 1293 
L 3354 1293 
L 3354 1760 
L 2726 1760 
L 2726 4691 
L 2080 4691 
L 128 1677 
L 128 1293 
L 2176 1293 
L 2176 0 
z
M 2176 1760 
L 736 1760 
L 1805 3360 
C 1939 3590 2067 3827 2182 4051 
L 2208 4051 
C 2195 3814 2176 3430 2176 3200 
L 2176 1760 
z
" transform="scale(0.015625)"/>
       </defs>
       <use xlink:href="#NotoSansCJKjp-Regular-73"/>
       <use xlink:href="#NotoSansCJKjp-Regular-68" transform="translate(46.799988 0)"/>
       <use xlink:href="#NotoSansCJKjp-Regular-69" transform="translate(107.499985 0)"/>
       <use xlink:href="#NotoSansCJKjp-Regular-73" transform="translate(134.999969 0)"/>
       <use xlink:href="#NotoSansCJKjp-Regular-61" transform="translate(181.799957 0)"/>
       <use xlink:href="#NotoSansCJKjp-Regular-2d" transform="translate(238.099945 0)"/>
       <use xlink:href="#NotoSansCJKjp-Regular-76" transform="translate(272.799942 0)"/>
       <use xlink:href="#NotoSansCJKjp-Regular-32" transform="translate(324.899933 0)"/>
       <use xlink:href="#NotoSansCJKjp-Regular-2d" transform="translate(380.399918 0)"/>
       <use xlink:href="#NotoSansCJKjp-Regular-75" transform="translate(415.099915 0)"/>
       <use xlink:href="#NotoSansCJKjp-Regular-6e" transform="translate(475.799911 0)"/>
       <use xlink:href="#NotoSansCJKjp-Regular-70" transform="translate(536.799896 0)"/>
       <use xlink:href="#NotoSansCJKjp-Regular-68" transform="translate(598.799881 0)"/>
       <use xlink:href="#NotoSansCJKjp-Regular-69" transform="translate(659.499878 0)"/>
       <use xlink:href="#NotoSansCJKjp-Regular-34" transform="translate(686.999863 0)"/>
       <use xlink:href="#NotoSansCJKjp-Regular-2d" transform="translate(742.499847 0)"/>
       <use xlink:href="#NotoSansCJKjp-Regular-31" transform="translate(777.199844 0)"/>
       <use xlink:href="#NotoSansCJKjp-Regular-34" transform="translate(832.699829 0)"/>
       <use xlink:href="#NotoSansCJKjp-Regular-62" transform="translate(888.199814 0)"/>
      </g>
     </g>
    </g>
    <g id="xtick_5">
     <g id="line2d_5">
      <g>
       <use xlink:href="#m5d66eae91f" x="671.490106" y="390.358747" style="stroke: #000000; stroke-width: 0.8"/>
      </g>
     </g>
     <g id="text_5">
      <!-- shisa-v2-qwen2.5-32b -->
      <g transform="translate(597.745498 475.111767) rotate(-45) scale(0.1 -0.1)">
       <use xlink:href="#NotoSansCJKjp-Regular-73"/>
       <use xlink:href="#NotoSansCJKjp-Regular-68" transform="translate(46.799988 0)"/>
       <use xlink:href="#NotoSansCJKjp-Regular-69" transform="translate(107.499985 0)"/>
       <use xlink:href="#NotoSansCJKjp-Regular-73" transform="translate(134.999969 0)"/>
       <use xlink:href="#NotoSansCJKjp-Regular-61" transform="translate(181.799957 0)"/>
       <use xlink:href="#NotoSansCJKjp-Regular-2d" transform="translate(238.099945 0)"/>
       <use xlink:href="#NotoSansCJKjp-Regular-76" transform="translate(272.799942 0)"/>
       <use xlink:href="#NotoSansCJKjp-Regular-32" transform="translate(324.899933 0)"/>
       <use xlink:href="#NotoSansCJKjp-Regular-2d" transform="translate(380.399918 0)"/>
       <use xlink:href="#NotoSansCJKjp-Regular-71" transform="translate(415.099915 0)"/>
       <use xlink:href="#NotoSansCJKjp-Regular-77" transform="translate(477.099899 0)"/>
       <use xlink:href="#NotoSansCJKjp-Regular-65" transform="translate(557.299881 0)"/>
       <use xlink:href="#NotoSansCJKjp-Regular-6e" transform="translate(612.699875 0)"/>
       <use xlink:href="#NotoSansCJKjp-Regular-32" transform="translate(673.69986 0)"/>
       <use xlink:href="#NotoSansCJKjp-Regular-2e" transform="translate(729.199844 0)"/>
       <use xlink:href="#NotoSansCJKjp-Regular-35" transform="translate(756.999832 0)"/>
       <use xlink:href="#NotoSansCJKjp-Regular-2d" transform="translate(812.499817 0)"/>
       <use xlink:href="#NotoSansCJKjp-Regular-33" transform="translate(847.199814 0)"/>
       <use xlink:href="#NotoSansCJKjp-Regular-32" transform="translate(902.699799 0)"/>
       <use xlink:href="#NotoSansCJKjp-Regular-62" transform="translate(958.199783 0)"/>
      </g>
     </g>
    </g>
    <g id="xtick_6">
     <g id="line2d_6">
      <g>
       <use xlink:href="#m5d66eae91f" x="816.858021" y="390.358747" style="stroke: #000000; stroke-width: 0.8"/>
      </g>
     </g>
     <g id="text_6">
      <!-- shisa-v2-llama-3.3-70b -->
      <g transform="translate(740.419778 477.805401) rotate(-45) scale(0.1 -0.1)">
       <defs>
        <path id="NotoSansCJKjp-Regular-30" d="M 1779 -83 
C 2669 -83 3238 723 3238 2362 
C 3238 3987 2669 4774 1779 4774 
C 883 4774 320 3987 320 2362 
C 320 723 883 -83 1779 -83 
z
M 1779 390 
C 1248 390 883 986 883 2362 
C 883 3731 1248 4314 1779 4314 
C 2310 4314 2675 3731 2675 2362 
C 2675 986 2310 390 1779 390 
z
" transform="scale(0.015625)"/>
       </defs>
       <use xlink:href="#NotoSansCJKjp-Regular-73"/>
       <use xlink:href="#NotoSansCJKjp-Regular-68" transform="translate(46.799988 0)"/>
       <use xlink:href="#NotoSansCJKjp-Regular-69" transform="translate(107.499985 0)"/>
       <use xlink:href="#NotoSansCJKjp-Regular-73" transform="translate(134.999969 0)"/>
       <use xlink:href="#NotoSansCJKjp-Regular-61" transform="translate(181.799957 0)"/>
       <use xlink:href="#NotoSansCJKjp-Regular-2d" transform="translate(238.099945 0)"/>
       <use xlink:href="#NotoSansCJKjp-Regular-76" transform="translate(272.799942 0)"/>
       <use xlink:href="#NotoSansCJKjp-Regular-32" transform="translate(324.899933 0)"/>
       <use xlink:href="#NotoSansCJKjp-Regular-2d" transform="translate(380.399918 0)"/>
       <use xlink:href="#NotoSansCJKjp-Regular-6c" transform="translate(415.099915 0)"/>
       <use xlink:href="#NotoSansCJKjp-Regular-6c" transform="translate(443.499908 0)"/>
       <use xlink:href="#NotoSansCJKjp-Regular-61" transform="translate(471.899902 0)"/>
       <use xlink:href="#NotoSansCJKjp-Regular-6d" transform="translate(528.19989 0)"/>
       <use xlink:href="#NotoSansCJKjp-Regular-61" transform="translate(620.799881 0)"/>
       <use xlink:href="#NotoSansCJKjp-Regular-2d" transform="translate(677.099869 0)"/>
       <use xlink:href="#NotoSansCJKjp-Regular-33" transform="translate(711.799866 0)"/>
       <use xlink:href="#NotoSansCJKjp-Regular-2e" transform="translate(767.29985 0)"/>
       <use xlink:href="#NotoSansCJKjp-Regular-33" transform="translate(795.099838 0)"/>
       <use xlink:href="#NotoSansCJKjp-Regular-2d" transform="translate(850.599823 0)"/>
       <use xlink:href="#NotoSansCJKjp-Regular-37" transform="translate(885.29982 0)"/>
       <use xlink:href="#NotoSansCJKjp-Regular-30" transform="translate(940.799805 0)"/>
       <use xlink:href="#NotoSansCJKjp-Regular-62" transform="translate(996.299789 0)"/>
      </g>
     </g>
    </g>
   </g>
   <g id="matplotlib.axis_2">
    <g id="ytick_1">
     <g id="line2d_7">
      <path d="M 53.676467 353.888434 
L 853.2 353.888434 
" clip-path="url(#p41ccd179f3)" style="fill: none; stroke-dasharray: 2.96,1.28; stroke-dashoffset: 0; stroke: #b0b0b0; stroke-opacity: 0.7; stroke-width: 0.8"/>
     </g>
     <g id="line2d_8">
      <defs>
       <path id="m569d8ddca1" d="M 0 0 
L -3.5 0 
" style="stroke: #000000; stroke-width: 0.8"/>
      </defs>
      <g>
       <use xlink:href="#m569d8ddca1" x="53.676467" y="353.888434" style="stroke: #000000; stroke-width: 0.8"/>
      </g>
     </g>
     <g id="text_7">
      <!-- 55 -->
      <g transform="translate(33.951467 357.687653) scale(0.1 -0.1)">
       <defs>
        <path id="DejaVuSans-35" d="M 691 4666 
L 3169 4666 
L 3169 4134 
L 1269 4134 
L 1269 2991 
Q 1406 3038 1543 3061 
Q 1681 3084 1819 3084 
Q 2600 3084 3056 2656 
Q 3513 2228 3513 1497 
Q 3513 744 3044 326 
Q 2575 -91 1722 -91 
Q 1428 -91 1123 -41 
Q 819 9 494 109 
L 494 744 
Q 775 591 1075 516 
Q 1375 441 1709 441 
Q 2250 441 2565 725 
Q 2881 1009 2881 1497 
Q 2881 1984 2565 2268 
Q 2250 2553 1709 2553 
Q 1456 2553 1204 2497 
Q 953 2441 691 2322 
L 691 4666 
z
" transform="scale(0.015625)"/>
       </defs>
       <use xlink:href="#DejaVuSans-35"/>
       <use xlink:href="#DejaVuSans-35" transform="translate(63.623047 0)"/>
      </g>
     </g>
    </g>
    <g id="ytick_2">
     <g id="line2d_9">
      <path d="M 53.676467 290.670698 
L 853.2 290.670698 
" clip-path="url(#p41ccd179f3)" style="fill: none; stroke-dasharray: 2.96,1.28; stroke-dashoffset: 0; stroke: #b0b0b0; stroke-opacity: 0.7; stroke-width: 0.8"/>
     </g>
     <g id="line2d_10">
      <g>
       <use xlink:href="#m569d8ddca1" x="53.676467" y="290.670698" style="stroke: #000000; stroke-width: 0.8"/>
      </g>
     </g>
     <g id="text_8">
      <!-- 60 -->
      <g transform="translate(33.951467 294.469916) scale(0.1 -0.1)">
       <defs>
        <path id="DejaVuSans-36" d="M 2113 2584 
Q 1688 2584 1439 2293 
Q 1191 2003 1191 1497 
Q 1191 994 1439 701 
Q 1688 409 2113 409 
Q 2538 409 2786 701 
Q 3034 994 3034 1497 
Q 3034 2003 2786 2293 
Q 2538 2584 2113 2584 
z
M 3366 4563 
L 3366 3988 
Q 3128 4100 2886 4159 
Q 2644 4219 2406 4219 
Q 1781 4219 1451 3797 
Q 1122 3375 1075 2522 
Q 1259 2794 1537 2939 
Q 1816 3084 2150 3084 
Q 2853 3084 3261 2657 
Q 3669 2231 3669 1497 
Q 3669 778 3244 343 
Q 2819 -91 2113 -91 
Q 1303 -91 875 529 
Q 447 1150 447 2328 
Q 447 3434 972 4092 
Q 1497 4750 2381 4750 
Q 2619 4750 2861 4703 
Q 3103 4656 3366 4563 
z
" transform="scale(0.015625)"/>
        <path id="DejaVuSans-30" d="M 2034 4250 
Q 1547 4250 1301 3770 
Q 1056 3291 1056 2328 
Q 1056 1369 1301 889 
Q 1547 409 2034 409 
Q 2525 409 2770 889 
Q 3016 1369 3016 2328 
Q 3016 3291 2770 3770 
Q 2525 4250 2034 4250 
z
M 2034 4750 
Q 2819 4750 3233 4129 
Q 3647 3509 3647 2328 
Q 3647 1150 3233 529 
Q 2819 -91 2034 -91 
Q 1250 -91 836 529 
Q 422 1150 422 2328 
Q 422 3509 836 4129 
Q 1250 4750 2034 4750 
z
" transform="scale(0.015625)"/>
       </defs>
       <use xlink:href="#DejaVuSans-36"/>
       <use xlink:href="#DejaVuSans-30" transform="translate(63.623047 0)"/>
      </g>
     </g>
    </g>
    <g id="ytick_3">
     <g id="line2d_11">
      <path d="M 53.676467 227.452961 
L 853.2 227.452961 
" clip-path="url(#p41ccd179f3)" style="fill: none; stroke-dasharray: 2.96,1.28; stroke-dashoffset: 0; stroke: #b0b0b0; stroke-opacity: 0.7; stroke-width: 0.8"/>
     </g>
     <g id="line2d_12">
      <g>
       <use xlink:href="#m569d8ddca1" x="53.676467" y="227.452961" style="stroke: #000000; stroke-width: 0.8"/>
      </g>
     </g>
     <g id="text_9">
      <!-- 65 -->
      <g transform="translate(33.951467 231.252179) scale(0.1 -0.1)">
       <use xlink:href="#DejaVuSans-36"/>
       <use xlink:href="#DejaVuSans-35" transform="translate(63.623047 0)"/>
      </g>
     </g>
    </g>
    <g id="ytick_4">
     <g id="line2d_13">
      <path d="M 53.676467 164.235224 
L 853.2 164.235224 
" clip-path="url(#p41ccd179f3)" style="fill: none; stroke-dasharray: 2.96,1.28; stroke-dashoffset: 0; stroke: #b0b0b0; stroke-opacity: 0.7; stroke-width: 0.8"/>
     </g>
     <g id="line2d_14">
      <g>
       <use xlink:href="#m569d8ddca1" x="53.676467" y="164.235224" style="stroke: #000000; stroke-width: 0.8"/>
      </g>
     </g>
     <g id="text_10">
      <!-- 70 -->
      <g transform="translate(33.951467 168.034442) scale(0.1 -0.1)">
       <defs>
        <path id="DejaVuSans-37" d="M 525 4666 
L 3525 4666 
L 3525 4397 
L 1831 0 
L 1172 0 
L 2766 4134 
L 525 4134 
L 525 4666 
z
" transform="scale(0.015625)"/>
       </defs>
       <use xlink:href="#DejaVuSans-37"/>
       <use xlink:href="#DejaVuSans-30" transform="translate(63.623047 0)"/>
      </g>
     </g>
    </g>
    <g id="ytick_5">
     <g id="line2d_15">
      <path d="M 53.676467 101.017487 
L 853.2 101.017487 
" clip-path="url(#p41ccd179f3)" style="fill: none; stroke-dasharray: 2.96,1.28; stroke-dashoffset: 0; stroke: #b0b0b0; stroke-opacity: 0.7; stroke-width: 0.8"/>
     </g>
     <g id="line2d_16">
      <g>
       <use xlink:href="#m569d8ddca1" x="53.676467" y="101.017487" style="stroke: #000000; stroke-width: 0.8"/>
      </g>
     </g>
     <g id="text_11">
      <!-- 75 -->
      <g transform="translate(33.951467 104.816705) scale(0.1 -0.1)">
       <use xlink:href="#DejaVuSans-37"/>
       <use xlink:href="#DejaVuSans-35" transform="translate(63.623047 0)"/>
      </g>
     </g>
    </g>
    <g id="ytick_6">
     <g id="line2d_17">
      <path d="M 53.676467 37.79975 
L 853.2 37.79975 
" clip-path="url(#p41ccd179f3)" style="fill: none; stroke-dasharray: 2.96,1.28; stroke-dashoffset: 0; stroke: #b0b0b0; stroke-opacity: 0.7; stroke-width: 0.8"/>
     </g>
     <g id="line2d_18">
      <g>
       <use xlink:href="#m569d8ddca1" x="53.676467" y="37.79975" style="stroke: #000000; stroke-width: 0.8"/>
      </g>
     </g>
     <g id="text_12">
      <!-- 80 -->
      <g transform="translate(33.951467 41.598969) scale(0.1 -0.1)">
       <defs>
        <path id="DejaVuSans-38" d="M 2034 2216 
Q 1584 2216 1326 1975 
Q 1069 1734 1069 1313 
Q 1069 891 1326 650 
Q 1584 409 2034 409 
Q 2484 409 2743 651 
Q 3003 894 3003 1313 
Q 3003 1734 2745 1975 
Q 2488 2216 2034 2216 
z
M 1403 2484 
Q 997 2584 770 2862 
Q 544 3141 544 3541 
Q 544 4100 942 4425 
Q 1341 4750 2034 4750 
Q 2731 4750 3128 4425 
Q 3525 4100 3525 3541 
Q 3525 3141 3298 2862 
Q 3072 2584 2669 2484 
Q 3125 2378 3379 2068 
Q 3634 1759 3634 1313 
Q 3634 634 3220 271 
Q 2806 -91 2034 -91 
Q 1263 -91 848 271 
Q 434 634 434 1313 
Q 434 1759 690 2068 
Q 947 2378 1403 2484 
z
M 1172 3481 
Q 1172 3119 1398 2916 
Q 1625 2713 2034 2713 
Q 2441 2713 2670 2916 
Q 2900 3119 2900 3481 
Q 2900 3844 2670 4047 
Q 2441 4250 2034 4250 
Q 1625 4250 1398 4047 
Q 1172 3844 1172 3481 
z
" transform="scale(0.015625)"/>
       </defs>
       <use xlink:href="#DejaVuSans-38"/>
       <use xlink:href="#DejaVuSans-30" transform="translate(63.623047 0)"/>
      </g>
     </g>
    </g>
    <g id="text_13">
     <!-- JA Avg Score -->
     <g transform="translate(27.451467 237.229217) rotate(-90) scale(0.1 -0.1)">
      <defs>
       <path id="NotoSansCJKjp-Regular-4a" d="M 1517 -83 
C 2432 -83 2810 563 2810 1376 
L 2810 4691 
L 2214 4691 
L 2214 1434 
C 2214 723 1965 435 1459 435 
C 1120 435 858 589 646 966 
L 224 659 
C 499 173 922 -83 1517 -83 
z
" transform="scale(0.015625)"/>
       <path id="NotoSansCJKjp-Regular-41" d="M 26 0 
L 621 0 
L 1075 1434 
L 2790 1434 
L 3238 0 
L 3866 0 
L 2272 4691 
L 1613 4691 
L 26 0 
z
M 1222 1901 
L 1453 2624 
C 1619 3155 1773 3661 1920 4211 
L 1946 4211 
C 2099 3667 2246 3155 2419 2624 
L 2643 1901 
L 1222 1901 
z
" transform="scale(0.015625)"/>
       <path id="NotoSansCJKjp-Regular-20" transform="scale(0.015625)"/>
       <path id="NotoSansCJKjp-Regular-67" d="M 1760 -1600 
C 2835 -1600 3520 -1043 3520 -397 
C 3520 179 3110 429 2310 429 
L 1626 429 
C 1158 429 1018 589 1018 806 
C 1018 998 1114 1114 1242 1222 
C 1395 1146 1587 1101 1754 1101 
C 2470 1101 3027 1568 3027 2310 
C 3027 2611 2912 2867 2746 3027 
L 3456 3027 
L 3456 3475 
L 2246 3475 
C 2125 3526 1952 3565 1754 3565 
C 1056 3565 454 3085 454 2323 
C 454 1907 678 1568 909 1389 
L 909 1363 
C 723 1235 525 1005 525 717 
C 525 442 659 256 838 147 
L 838 115 
C 512 -83 326 -371 326 -672 
C 326 -1267 915 -1600 1760 -1600 
z
M 1754 1498 
C 1357 1498 1018 1818 1018 2323 
C 1018 2835 1350 3136 1754 3136 
C 2170 3136 2496 2835 2496 2323 
C 2496 1818 2157 1498 1754 1498 
z
M 1843 -1197 
C 1210 -1197 838 -960 838 -589 
C 838 -390 941 -179 1190 0 
C 1344 -38 1510 -51 1638 -51 
L 2240 -51 
C 2701 -51 2944 -166 2944 -493 
C 2944 -851 2515 -1197 1843 -1197 
z
" transform="scale(0.015625)"/>
       <path id="NotoSansCJKjp-Regular-53" d="M 1946 -83 
C 2925 -83 3539 506 3539 1248 
C 3539 1946 3117 2266 2573 2502 
L 1907 2790 
C 1542 2944 1126 3117 1126 3578 
C 1126 3994 1472 4256 2003 4256 
C 2438 4256 2784 4090 3072 3821 
L 3379 4198 
C 3053 4538 2560 4774 2003 4774 
C 1152 4774 525 4256 525 3533 
C 525 2848 1043 2515 1478 2330 
L 2150 2035 
C 2598 1837 2938 1683 2938 1197 
C 2938 742 2573 435 1952 435 
C 1466 435 992 666 659 1018 
L 307 608 
C 710 186 1280 -83 1946 -83 
z
" transform="scale(0.015625)"/>
       <path id="NotoSansCJKjp-Regular-63" d="M 1958 -83 
C 2374 -83 2771 83 3085 352 
L 2829 749 
C 2611 557 2330 403 2010 403 
C 1370 403 934 934 934 1734 
C 934 2534 1395 3072 2029 3072 
C 2298 3072 2522 2950 2720 2771 
L 3014 3155 
C 2771 3373 2458 3565 2003 3565 
C 1107 3565 333 2893 333 1734 
C 333 582 1037 -83 1958 -83 
z
" transform="scale(0.015625)"/>
      </defs>
      <use xlink:href="#NotoSansCJKjp-Regular-4a"/>
      <use xlink:href="#NotoSansCJKjp-Regular-41" transform="translate(53.499985 0)"/>
      <use xlink:href="#NotoSansCJKjp-Regular-20" transform="translate(114.299973 0)"/>
      <use xlink:href="#NotoSansCJKjp-Regular-41" transform="translate(136.699966 0)"/>
      <use xlink:href="#NotoSansCJKjp-Regular-76" transform="translate(197.499954 0)"/>
      <use xlink:href="#NotoSansCJKjp-Regular-67" transform="translate(249.599945 0)"/>
      <use xlink:href="#NotoSansCJKjp-Regular-20" transform="translate(305.999939 0)"/>
      <use xlink:href="#NotoSansCJKjp-Regular-53" transform="translate(328.399933 0)"/>
      <use xlink:href="#NotoSansCJKjp-Regular-63" transform="translate(387.999924 0)"/>
      <use xlink:href="#NotoSansCJKjp-Regular-6f" transform="translate(438.999908 0)"/>
      <use xlink:href="#NotoSansCJKjp-Regular-72" transform="translate(499.599899 0)"/>
      <use xlink:href="#NotoSansCJKjp-Regular-65" transform="translate(538.399887 0)"/>
     </g>
    </g>
   </g>
   <g id="line2d_19">
    <path d="M 90.018446 223.659896 
L 90.018446 150.833063 
" clip-path="url(#p41ccd179f3)" style="fill: none; stroke: #969696; stroke-linecap: square"/>
   </g>
   <g id="line2d_20">
    <path d="M 235.386361 373.738804 
L 235.386361 153.741079 
" clip-path="url(#p41ccd179f3)" style="fill: none; stroke: #969696; stroke-linecap: square"/>
   </g>
   <g id="line2d_21">
    <path d="M 380.754276 310.394631 
L 380.754276 128.453985 
" clip-path="url(#p41ccd179f3)" style="fill: none; stroke: #969696; stroke-linecap: square"/>
   </g>
   <g id="line2d_22">
    <path d="M 526.122191 133.005662 
L 526.122191 89.76473 
" clip-path="url(#p41ccd179f3)" style="fill: none; stroke: #969696; stroke-linecap: square"/>
   </g>
   <g id="line2d_23">
    <path d="M 671.490106 204.821011 
L 671.490106 76.109698 
" clip-path="url(#p41ccd179f3)" style="fill: none; stroke: #969696; stroke-linecap: square"/>
   </g>
   <g id="line2d_24">
    <path d="M 816.858021 129.465468 
L 816.858021 41.339943 
" clip-path="url(#p41ccd179f3)" style="fill: none; stroke: #969696; stroke-linecap: square"/>
   </g>
   <g id="line2d_25">
    <defs>
     <path id="maa0b0c9fa6" d="M 0 4 
C 1.060812 4 2.078319 3.578535 2.828427 2.828427 
C 3.578535 2.078319 4 1.060812 4 0 
C 4 -1.060812 3.578535 -2.078319 2.828427 -2.828427 
C 2.078319 -3.578535 1.060812 -4 0 -4 
C -1.060812 -4 -2.078319 -3.578535 -2.828427 -2.828427 
C -3.578535 -2.078319 -4 -1.060812 -4 0 
C -4 1.060812 -3.578535 2.078319 -2.828427 2.828427 
C -2.078319 3.578535 -1.060812 4 0 4 
z
" style="stroke: #969696"/>
    </defs>
    <g clip-path="url(#p41ccd179f3)">
     <use xlink:href="#maa0b0c9fa6" x="90.018446" y="223.659896" style="fill: #969696; stroke: #969696"/>
    </g>
   </g>
   <g id="line2d_26">
    <defs>
     <path id="m372e80ed37" d="M -4 4 
L 4 4 
L 4 -4 
L -4 -4 
z
" style="stroke: #e164fa; stroke-linejoin: miter"/>
    </defs>
    <g clip-path="url(#p41ccd179f3)">
     <use xlink:href="#m372e80ed37" x="90.018446" y="150.833063" style="fill: #e164fa; stroke: #e164fa; stroke-linejoin: miter"/>
    </g>
   </g>
   <g id="line2d_27">
    <g clip-path="url(#p41ccd179f3)">
     <use xlink:href="#maa0b0c9fa6" x="235.386361" y="373.738804" style="fill: #969696; stroke: #969696"/>
    </g>
   </g>
   <g id="line2d_28">
    <g clip-path="url(#p41ccd179f3)">
     <use xlink:href="#m372e80ed37" x="235.386361" y="153.741079" style="fill: #e164fa; stroke: #e164fa; stroke-linejoin: miter"/>
    </g>
   </g>
   <g id="line2d_29">
    <g clip-path="url(#p41ccd179f3)">
     <use xlink:href="#maa0b0c9fa6" x="380.754276" y="310.394631" style="fill: #969696; stroke: #969696"/>
    </g>
   </g>
   <g id="line2d_30">
    <g clip-path="url(#p41ccd179f3)">
     <use xlink:href="#m372e80ed37" x="380.754276" y="128.453985" style="fill: #e164fa; stroke: #e164fa; stroke-linejoin: miter"/>
    </g>
   </g>
   <g id="line2d_31">
    <g clip-path="url(#p41ccd179f3)">
     <use xlink:href="#maa0b0c9fa6" x="526.122191" y="133.005662" style="fill: #969696; stroke: #969696"/>
    </g>
   </g>
   <g id="line2d_32">
    <g clip-path="url(#p41ccd179f3)">
     <use xlink:href="#m372e80ed37" x="526.122191" y="89.76473" style="fill: #e164fa; stroke: #e164fa; stroke-linejoin: miter"/>
    </g>
   </g>
   <g id="line2d_33">
    <g clip-path="url(#p41ccd179f3)">
     <use xlink:href="#maa0b0c9fa6" x="671.490106" y="204.821011" style="fill: #969696; stroke: #969696"/>
    </g>
   </g>
   <g id="line2d_34">
    <g clip-path="url(#p41ccd179f3)">
     <use xlink:href="#m372e80ed37" x="671.490106" y="76.109698" style="fill: #e164fa; stroke: #e164fa; stroke-linejoin: miter"/>
    </g>
   </g>
   <g id="line2d_35">
    <g clip-path="url(#p41ccd179f3)">
     <use xlink:href="#maa0b0c9fa6" x="816.858021" y="129.465468" style="fill: #969696; stroke: #969696"/>
    </g>
   </g>
   <g id="line2d_36">
    <g clip-path="url(#p41ccd179f3)">
     <use xlink:href="#m372e80ed37" x="816.858021" y="41.339943" style="fill: #e164fa; stroke: #e164fa; stroke-linejoin: miter"/>
    </g>
   </g>
   <g id="patch_3">
    <path d="M 53.676467 390.358747 
L 53.676467 24.72 
" style="fill: none; stroke: #000000; stroke-width: 0.8; stroke-linejoin: miter; stroke-linecap: square"/>
   </g>
   <g id="patch_4">
    <path d="M 853.2 390.358747 
L 853.2 24.72 
" style="fill: none; stroke: #000000; stroke-width: 0.8; stroke-linejoin: miter; stroke-linecap: square"/>
   </g>
   <g id="patch_5">
    <path d="M 53.676467 390.358747 
L 853.2 390.358747 
" style="fill: none; stroke: #000000; stroke-width: 0.8; stroke-linejoin: miter; stroke-linecap: square"/>
   </g>
   <g id="patch_6">
    <path d="M 53.676467 24.72 
L 853.2 24.72 
" style="fill: none; stroke: #000000; stroke-width: 0.8; stroke-linejoin: miter; stroke-linecap: square"/>
   </g>
   <g id="text_14">
    <!-- Shisa V2 Improvement vs Base Models -->
    <g transform="translate(364.892921 18.72) scale(0.1 -0.1)">
     <defs>
      <path id="NotoSansCJKjp-Regular-56" d="M 1504 0 
L 2189 0 
L 3680 4691 
L 3078 4691 
L 2323 2150 
C 2163 1600 2048 1152 1869 602 
L 1843 602 
C 1670 1152 1549 1600 1389 2150 
L 627 4691 
L 6 4691 
L 1504 0 
z
" transform="scale(0.015625)"/>
      <path id="NotoSansCJKjp-Regular-49" d="M 646 0 
L 1235 0 
L 1235 4691 
L 646 4691 
L 646 0 
z
" transform="scale(0.015625)"/>
      <path id="NotoSansCJKjp-Regular-42" d="M 646 0 
L 2138 0 
C 3187 0 3917 454 3917 1376 
C 3917 2016 3520 2387 2963 2496 
L 2963 2528 
C 3405 2669 3648 3078 3648 3546 
C 3648 4371 2982 4691 2035 4691 
L 646 4691 
L 646 0 
z
M 1235 2701 
L 1235 4224 
L 1958 4224 
C 2694 4224 3066 4019 3066 3469 
C 3066 2989 2739 2701 1933 2701 
L 1235 2701 
z
M 1235 474 
L 1235 2240 
L 2054 2240 
C 2880 2240 3334 1978 3334 1395 
C 3334 762 2861 474 2054 474 
L 1235 474 
z
" transform="scale(0.015625)"/>
      <path id="NotoSansCJKjp-Regular-4d" d="M 646 0 
L 1178 0 
L 1178 2598 
C 1178 3002 1139 3571 1101 3981 
L 1126 3981 
L 1504 2912 
L 2394 474 
L 2790 474 
L 3674 2912 
L 4051 3981 
L 4077 3981 
C 4045 3571 4000 3002 4000 2598 
L 4000 0 
L 4550 0 
L 4550 4691 
L 3840 4691 
L 2944 2182 
C 2835 1862 2739 1530 2618 1203 
L 2592 1203 
C 2477 1530 2374 1862 2253 2182 
L 1357 4691 
L 646 4691 
L 646 0 
z
" transform="scale(0.015625)"/>
      <path id="NotoSansCJKjp-Regular-64" d="M 1773 -83 
C 2189 -83 2560 141 2829 410 
L 2848 410 
L 2899 0 
L 3379 0 
L 3379 5094 
L 2790 5094 
L 2790 3757 
L 2822 3162 
C 2515 3411 2253 3565 1843 3565 
C 1050 3565 339 2861 339 1734 
C 339 576 902 -83 1773 -83 
z
M 1901 410 
C 1293 410 941 902 941 1741 
C 941 2534 1389 3072 1946 3072 
C 2234 3072 2502 2970 2790 2707 
L 2790 883 
C 2502 563 2221 410 1901 410 
z
" transform="scale(0.015625)"/>
     </defs>
     <use xlink:href="#NotoSansCJKjp-Regular-53"/>
     <use xlink:href="#NotoSansCJKjp-Regular-68" transform="translate(59.599991 0)"/>
     <use xlink:href="#NotoSansCJKjp-Regular-69" transform="translate(120.299988 0)"/>
     <use xlink:href="#NotoSansCJKjp-Regular-73" transform="translate(147.799973 0)"/>
     <use xlink:href="#NotoSansCJKjp-Regular-61" transform="translate(194.59996 0)"/>
     <use xlink:href="#NotoSansCJKjp-Regular-20" transform="translate(250.899948 0)"/>
     <use xlink:href="#NotoSansCJKjp-Regular-56" transform="translate(273.299942 0)"/>
     <use xlink:href="#NotoSansCJKjp-Regular-32" transform="translate(330.799927 0)"/>
     <use xlink:href="#NotoSansCJKjp-Regular-20" transform="translate(386.299911 0)"/>
     <use xlink:href="#NotoSansCJKjp-Regular-49" transform="translate(408.699905 0)"/>
     <use xlink:href="#NotoSansCJKjp-Regular-6d" transform="translate(437.999893 0)"/>
     <use xlink:href="#NotoSansCJKjp-Regular-70" transform="translate(530.599884 0)"/>
     <use xlink:href="#NotoSansCJKjp-Regular-72" transform="translate(592.599869 0)"/>
     <use xlink:href="#NotoSansCJKjp-Regular-6f" transform="translate(631.399857 0)"/>
     <use xlink:href="#NotoSansCJKjp-Regular-76" transform="translate(691.999847 0)"/>
     <use xlink:href="#NotoSansCJKjp-Regular-65" transform="translate(744.099838 0)"/>
     <use xlink:href="#NotoSansCJKjp-Regular-6d" transform="translate(799.499832 0)"/>
     <use xlink:href="#NotoSansCJKjp-Regular-65" transform="translate(892.099823 0)"/>
     <use xlink:href="#NotoSansCJKjp-Regular-6e" transform="translate(947.499817 0)"/>
     <use xlink:href="#NotoSansCJKjp-Regular-74" transform="translate(1008.499802 0)"/>
     <use xlink:href="#NotoSansCJKjp-Regular-20" transform="translate(1046.199799 0)"/>
     <use xlink:href="#NotoSansCJKjp-Regular-76" transform="translate(1068.599792 0)"/>
     <use xlink:href="#NotoSansCJKjp-Regular-73" transform="translate(1120.699783 0)"/>
     <use xlink:href="#NotoSansCJKjp-Regular-20" transform="translate(1167.499771 0)"/>
     <use xlink:href="#NotoSansCJKjp-Regular-42" transform="translate(1189.899765 0)"/>
     <use xlink:href="#NotoSansCJKjp-Regular-61" transform="translate(1255.599762 0)"/>
     <use xlink:href="#NotoSansCJKjp-Regular-73" transform="translate(1311.89975 0)"/>
     <use xlink:href="#NotoSansCJKjp-Regular-65" transform="translate(1358.699738 0)"/>
     <use xlink:href="#NotoSansCJKjp-Regular-20" transform="translate(1414.099731 0)"/>
     <use xlink:href="#NotoSansCJKjp-Regular-4d" transform="translate(1436.499725 0)"/>
     <use xlink:href="#NotoSansCJKjp-Regular-6f" transform="translate(1517.699707 0)"/>
     <use xlink:href="#NotoSansCJKjp-Regular-64" transform="translate(1578.299698 0)"/>
     <use xlink:href="#NotoSansCJKjp-Regular-65" transform="translate(1640.299683 0)"/>
     <use xlink:href="#NotoSansCJKjp-Regular-6c" transform="translate(1695.699677 0)"/>
     <use xlink:href="#NotoSansCJKjp-Regular-73" transform="translate(1724.09967 0)"/>
    </g>
   </g>
  </g>
 </g>
 <defs>
  <clipPath id="p41ccd179f3">
   <rect x="53.676467" y="24.72" width="799.523533" height="365.638747"/>
  </clipPath>
 </defs>
</svg>
